<svg width="69" height="16" viewBox="0 0 69 16" fill="none" xmlns="http://www.w3.org/2000/svg">
<g clip-path="url(#clip0_4667_196769)">
<path d="M12.4994 0.340979C12.2096 0.336165 11.9292 0.441294 11.7181 0.633967C11.6102 0.732294 11.5251 0.851724 11.4684 0.98435C11.4117 1.11698 11.3847 1.25977 11.3891 1.40329C11.3862 1.54382 11.4124 1.68349 11.466 1.81407C11.5197 1.94465 11.5997 2.0635 11.7015 2.16362C11.8021 2.26635 11.9237 2.34762 12.0586 2.40224C12.1934 2.45686 12.3385 2.48364 12.4846 2.48087C12.6309 2.48183 12.776 2.45459 12.9114 2.40072C13.0468 2.34686 13.1698 2.26746 13.2733 2.16712C13.3767 2.06678 13.4586 1.94751 13.5141 1.81623C13.5697 1.68496 13.5978 1.54428 13.5968 1.40239C13.6013 1.25887 13.5743 1.11608 13.5175 0.983451C13.4608 0.850825 13.3757 0.731395 13.2678 0.633068C13.061 0.441895 12.7851 0.337018 12.4994 0.340979Z" fill="#191C1F"/>
<path d="M12.4999 3.55215C12.3859 3.54931 12.2725 3.56899 12.1666 3.60998C12.0607 3.65098 11.9645 3.71245 11.8839 3.79063C11.8033 3.86882 11.7399 3.9621 11.6976 4.06479C11.6553 4.16748 11.635 4.27744 11.6379 4.38797V11.47C11.635 11.5806 11.6553 11.6905 11.6976 11.7932C11.7399 11.8959 11.8033 11.9892 11.8839 12.0674C11.9645 12.1456 12.0607 12.207 12.1666 12.248C12.2725 12.289 12.3859 12.3087 12.4999 12.3059C12.6139 12.3095 12.7274 12.2898 12.8329 12.248C12.9385 12.2061 13.0338 12.1432 13.1125 12.0632C13.1899 11.9841 13.2505 11.8911 13.2907 11.7893C13.331 11.6875 13.3501 11.579 13.347 11.47V4.38797C13.3501 4.27901 13.331 4.17052 13.2907 4.06874C13.2505 3.96695 13.1899 3.87386 13.1125 3.79481C13.0337 3.71496 12.9384 3.65209 12.8328 3.61028C12.7273 3.56848 12.6138 3.54867 12.4999 3.55215Z" fill="#191C1F"/>
<path d="M20.073 7.38826L22.999 4.82057C23.0886 4.75364 23.1615 4.66796 23.2122 4.56993C23.2629 4.47189 23.2901 4.36403 23.2919 4.25436C23.2813 4.05979 23.1995 3.87526 23.0611 3.73399C22.9915 3.64858 22.9025 3.57983 22.8011 3.53308C22.6997 3.48633 22.5885 3.46282 22.4763 3.46437C22.2731 3.46615 22.0782 3.54296 21.9313 3.67917L17.9691 7.15369V0.842754C17.9729 0.732654 17.9538 0.622945 17.9129 0.520155C17.8721 0.417366 17.8103 0.323596 17.7313 0.244423C17.6523 0.16525 17.5577 0.102292 17.4531 0.0592949C17.3485 0.016298 17.2361 -0.00585938 17.1225 -0.00585938C17.0089 -0.00585938 16.8964 0.016298 16.7918 0.0592949C16.6872 0.102292 16.5926 0.16525 16.5137 0.244423C16.4347 0.323596 16.3729 0.417366 16.332 0.520155C16.2912 0.622945 16.2721 0.732654 16.2758 0.842754V11.482C16.2721 11.5921 16.2912 11.7018 16.332 11.8046C16.3729 11.9074 16.4347 12.0012 16.5137 12.0803C16.5926 12.1595 16.6872 12.2225 16.7918 12.2655C16.8964 12.3085 17.0089 12.3306 17.1225 12.3306C17.2361 12.3306 17.3485 12.3085 17.4531 12.2655C17.5577 12.2225 17.6523 12.1595 17.7313 12.0803C17.8103 12.0012 17.8721 11.9074 17.9129 11.8046C17.9538 11.7018 17.9729 11.5921 17.9691 11.482V9.22438L18.8533 8.44698L21.8868 12.059C21.9577 12.1543 22.051 12.2319 22.159 12.2852C22.267 12.3385 22.3866 12.366 22.5078 12.3655C22.7002 12.361 22.8858 12.2953 23.0361 12.1785L23.0472 12.1695C23.141 12.099 23.2172 12.0089 23.2703 11.9059C23.3234 11.8029 23.352 11.6897 23.354 11.5746C23.3551 11.3888 23.2847 11.2094 23.1566 11.0713L20.073 7.38826Z" fill="#191C1F"/>
<path d="M8.55947 5.67247C8.16963 5.00262 7.60065 4.44715 6.91251 4.06462C6.1998 3.68149 5.3983 3.48047 4.5834 3.48047C3.7685 3.48047 2.967 3.68149 2.25429 4.06462C1.56433 4.44637 0.993661 5.00192 0.602696 5.67247C0.20031 6.36331 -0.00716218 7.14481 0.00118853 7.93819V15.0023C0.00118856 15.2239 0.0919976 15.4365 0.253644 15.5933C0.41529 15.75 0.634525 15.8381 0.863127 15.8381C1.09173 15.8381 1.31098 15.75 1.47262 15.5933C1.63427 15.4365 1.72508 15.2239 1.72508 15.0023V11.2401C2.0252 11.521 2.36696 11.7566 2.73902 11.9394C3.34952 12.2367 4.02444 12.3883 4.70759 12.3815C5.49692 12.3916 6.27423 12.1934 6.95644 11.8083C7.63864 11.4232 8.2001 10.8655 8.58079 10.1949C8.97346 9.50428 9.17495 8.72678 9.16562 7.93819C9.17375 7.14483 8.96628 6.36339 8.5641 5.67247H8.55947ZM4.39803 10.8258H4.34984L4.27847 10.8204C4.20432 10.8132 4.1413 10.8061 4.08106 10.7962L3.99949 10.7836C3.9906 10.7803 3.98121 10.7785 3.9717 10.7782L3.89199 10.762C3.73545 10.729 3.58246 10.6818 3.43506 10.6209C3.40523 10.6105 3.37614 10.5982 3.34795 10.5841C3.32014 10.5733 3.29419 10.5607 3.2636 10.5454L3.18019 10.5041C3.15145 10.4897 3.12457 10.4744 3.09677 10.4591C2.65893 10.2143 2.29864 9.85774 2.05502 9.42829C1.80545 8.97017 1.675 8.45989 1.675 7.94178C1.675 7.42367 1.80545 6.91339 2.05502 6.45527C2.30033 6.0241 2.66081 5.66492 3.09862 5.41543C3.2632 5.32053 3.43783 5.24309 3.6195 5.18445C3.67882 5.16468 3.73999 5.14581 3.80486 5.13053C4.059 5.0661 4.32072 5.03408 4.5834 5.03526C5.1041 5.02933 5.61667 5.16074 6.06632 5.41543C6.50348 5.66543 6.86354 6.02451 7.10899 6.45527C7.35856 6.91339 7.48902 7.42367 7.48902 7.94178C7.48902 8.45989 7.35856 8.97017 7.10899 9.42829C6.8648 9.85733 6.50465 10.2137 6.06724 10.4591C5.61627 10.71 5.1042 10.8391 4.58433 10.833H4.47311L4.39803 10.8258Z" fill="#191C1F"/>
<path d="M49.8462 4.06463C49.1335 3.68149 48.332 3.48047 47.5171 3.48047C46.7022 3.48047 45.9007 3.68149 45.188 4.06463C44.4981 4.44614 43.9277 5.00177 43.5373 5.67247C43.1348 6.36326 42.9273 7.14479 42.9358 7.93819C42.9264 8.72679 43.1279 9.50431 43.5206 10.1949C43.9014 10.8652 44.4627 11.4226 45.1448 11.8076C45.8268 12.1925 46.6038 12.3906 47.3929 12.3806C48.0756 12.3873 48.7502 12.236 49.3606 11.9394C49.7326 11.7562 50.0743 11.5202 50.3745 11.2392V11.4846C50.3709 11.5951 50.3913 11.7051 50.4344 11.8075C50.4776 11.9098 50.5424 12.0022 50.6247 12.0787C50.7063 12.1537 50.8023 12.2124 50.9072 12.2515C51.0122 12.2905 51.1241 12.309 51.2364 12.3061C51.3505 12.3089 51.464 12.2891 51.57 12.248C51.6759 12.2069 51.7722 12.1453 51.8528 12.067C51.9324 11.9912 51.9953 11.9005 52.0375 11.8003C52.0797 11.7002 52.1005 11.5928 52.0984 11.4846V7.93819C52.1067 7.14481 51.8993 6.36331 51.4969 5.67247C51.1066 5.00177 50.5361 4.44614 49.8462 4.06463ZM50.4023 7.93819C50.4099 8.45717 50.279 8.96924 50.0223 9.4247C49.7803 9.85254 49.4236 10.209 48.9898 10.4564C48.5422 10.7074 48.0331 10.8365 47.5162 10.8303C46.9963 10.8362 46.4843 10.7071 46.0333 10.4564C45.5957 10.2108 45.2356 9.85406 44.9915 9.4247C44.7419 8.96658 44.6115 8.4563 44.6115 7.93819C44.6115 7.42007 44.7419 6.90979 44.9915 6.45167C45.2371 6.02069 45.5975 5.66157 46.0351 5.41183C46.4847 5.15689 46.9973 5.02546 47.518 5.03167C48.0353 5.02519 48.5444 5.15671 48.9898 5.41183C49.4245 5.66311 49.7825 6.02199 50.0269 6.45167C50.2831 6.90729 50.4137 7.41931 50.406 7.93819H50.4023Z" fill="#191C1F"/>
<path d="M58.3167 10.6462H57.8968C57.7076 10.6535 57.519 10.6205 57.3443 10.5495C57.1696 10.4785 57.0131 10.3714 56.8857 10.2355C56.6169 9.95329 56.4871 9.59649 56.4871 9.14353V5.35984H57.9904C58.0967 5.36354 58.2027 5.34634 58.3019 5.30927C58.4011 5.2722 58.4916 5.21603 58.5679 5.14415C58.64 5.07516 58.697 4.99265 58.7352 4.90164C58.7734 4.81064 58.7922 4.71304 58.7903 4.61479C58.7932 4.51405 58.7749 4.4138 58.7365 4.32016C58.6981 4.22652 58.6404 4.14145 58.5669 4.07015C58.4909 3.99826 58.4006 3.94207 58.3015 3.90499C58.2024 3.86792 58.0966 3.85072 57.9904 3.85446H56.4871V1.76489C56.4901 1.65428 56.4697 1.54424 56.4274 1.44149C56.3851 1.33874 56.3216 1.24542 56.2409 1.16722C56.1602 1.08902 56.0638 1.02757 55.9578 0.986631C55.8518 0.945687 55.7383 0.926101 55.6243 0.929066C55.5103 0.925756 55.397 0.94564 55.2914 0.987436C55.1859 1.02923 55.0906 1.09201 55.0116 1.17173C54.856 1.33175 54.772 1.54501 54.7781 1.76489V3.85715H54.0218C53.9155 3.8533 53.8095 3.87043 53.7102 3.90751C53.611 3.94459 53.5205 4.00084 53.4444 4.07285C53.3712 4.14429 53.3137 4.2294 53.2755 4.32302C53.2373 4.41665 53.219 4.51683 53.2219 4.61749C53.2197 4.71578 53.2383 4.81347 53.2766 4.90452C53.3148 4.99557 53.3719 5.07804 53.4444 5.14684C53.5205 5.21885 53.611 5.27511 53.7102 5.31219C53.8095 5.34926 53.9155 5.3664 54.0218 5.36254H54.7781V9.14353C54.7694 9.7018 54.9058 10.2532 55.1748 10.7469C55.4372 11.2238 55.83 11.6214 56.3102 11.8961C56.7905 12.1707 57.3394 12.3116 57.8968 12.3035H58.224C58.4598 12.3094 58.6888 12.2262 58.8626 12.0716C58.9488 11.9981 59.0176 11.9073 59.0641 11.8055C59.1107 11.7037 59.1339 11.5934 59.1323 11.482C59.1385 11.2655 59.0589 11.0548 58.9099 10.8934C58.8354 10.813 58.7437 10.7492 58.6413 10.7065C58.5389 10.6639 58.4281 10.6433 58.3167 10.6462Z" fill="#191C1F"/>
<path d="M32.9519 3.55473C32.8396 3.55056 32.7277 3.56894 32.6231 3.6087C32.5185 3.64846 32.4235 3.70876 32.344 3.7858C32.2646 3.86284 32.2024 3.95497 32.1614 4.05641C32.1204 4.15784 32.1014 4.2664 32.1057 4.37528V8.8429C32.1083 9.19439 31.9989 9.53806 31.7925 9.82702C31.5711 10.134 31.2699 10.3787 30.9194 10.5361C30.5229 10.7152 30.0898 10.8049 29.6524 10.7986C28.8934 10.7986 28.2742 10.5856 27.8118 10.164C27.3493 9.74254 27.1213 9.11971 27.1213 8.29917V4.37258C27.1232 4.26443 27.1024 4.15704 27.0601 4.05693C27.0179 3.95681 26.9552 3.86607 26.8757 3.7902C26.7949 3.71207 26.6987 3.65067 26.5927 3.60973C26.4868 3.56879 26.3733 3.54916 26.2593 3.55203C26.1478 3.55046 26.037 3.57061 25.9336 3.61129C25.8302 3.65197 25.7363 3.71235 25.6574 3.78886C25.5785 3.86537 25.5162 3.95645 25.4742 4.05672C25.4323 4.15698 25.4115 4.26439 25.4131 4.37258V8.29647C25.4131 9.14039 25.5911 9.87915 25.9433 10.4921C26.283 11.0959 26.7988 11.5892 27.4262 11.9103C28.0757 12.2369 28.7985 12.4024 29.5301 12.392C30.1122 12.3966 30.6887 12.2814 31.2215 12.0541C31.5397 11.9169 31.8378 11.7398 32.1085 11.5274C32.1165 11.7261 32.1993 11.9151 32.3411 12.0586C32.4198 12.1388 32.515 12.2019 32.6206 12.2439C32.7262 12.2859 32.8397 12.3057 32.9538 12.3021C33.0678 12.305 33.1812 12.2853 33.2871 12.2443C33.393 12.2033 33.4892 12.1418 33.5698 12.0637C33.6504 11.9855 33.7138 11.8922 33.7561 11.7895C33.7984 11.6868 33.8186 11.5769 33.8157 11.4663V4.37258C33.8191 4.2621 33.7986 4.15215 33.7555 4.04983C33.7124 3.94751 33.6477 3.85508 33.5655 3.77851C33.3996 3.62814 33.1789 3.54766 32.9519 3.55473Z" fill="#191C1F"/>
<path d="M68.765 8.35223C68.843 8.27957 68.9044 8.19171 68.9449 8.09444C68.9855 7.99717 69.0044 7.89268 69.0004 7.78783C69.0133 7.02121 68.8356 6.26286 68.4823 5.57693C68.1496 4.94027 67.6393 4.40688 67.0096 4.03739C66.3531 3.66079 65.6016 3.46821 64.839 3.48107C64.0528 3.46955 63.2784 3.66692 62.5998 4.05177C61.9431 4.43261 61.409 4.98351 61.0575 5.64254C60.6825 6.35258 60.4935 7.14118 60.507 7.93881C60.4949 8.73714 60.6964 9.52487 61.0918 10.2252C61.4717 10.892 62.0364 11.4424 62.7221 11.8142C63.3237 12.1327 63.9891 12.3217 64.6728 12.3682C65.3566 12.4148 66.0427 12.3177 66.6843 12.0838C67.1899 11.9155 67.6606 11.6614 68.0745 11.3333C68.1541 11.2682 68.2182 11.187 68.2622 11.0955C68.3062 11.0039 68.3292 10.9041 68.3294 10.8031C68.3282 10.6909 68.3022 10.5803 68.2533 10.4786C68.2044 10.3769 68.1336 10.2865 68.0458 10.2135L68.0217 10.1955C67.8804 10.0899 67.7079 10.031 67.5295 10.0275C67.3185 10.0301 67.1146 10.102 66.9512 10.2315L66.9428 10.2387C66.6975 10.4307 66.417 10.5762 66.1161 10.6674C65.7799 10.781 65.4267 10.8399 65.0707 10.8417C64.269 10.8417 63.5933 10.6045 63.0632 10.1371C62.5962 9.7221 62.2876 9.16629 62.1873 8.55984H68.1829C68.3977 8.56815 68.607 8.49348 68.765 8.35223ZM62.2346 7.10299C62.3492 6.55192 62.6347 6.04799 63.053 5.65872C63.5164 5.23271 64.1216 5.01702 64.839 5.01702C65.5563 5.01702 66.1282 5.23182 66.5749 5.65602C66.9782 6.04886 67.2429 6.55536 67.3312 7.10299H62.2346Z" fill="#191C1F"/>
<path d="M41.7325 3.65078C41.4424 3.52495 41.0698 3.46294 40.5925 3.46294C40.0275 3.45995 39.47 3.58848 38.9668 3.83772C38.6818 3.97833 38.419 4.1578 38.1864 4.37067C38.1918 4.25968 38.1739 4.14879 38.1338 4.04471C38.0937 3.94063 38.0322 3.84553 37.9531 3.76515C37.874 3.68476 37.7789 3.62078 37.6735 3.57706C37.5682 3.53335 37.4548 3.5108 37.3402 3.5108C37.2257 3.5108 37.1123 3.53335 37.0069 3.57706C36.9016 3.62078 36.8065 3.68476 36.7274 3.76515C36.6483 3.84553 36.5868 3.94063 36.5467 4.04471C36.5066 4.14879 36.4887 4.25968 36.4941 4.37067V11.4788C36.4887 11.5898 36.5066 11.7007 36.5467 11.8047C36.5868 11.9088 36.6483 12.0039 36.7274 12.0843C36.8065 12.1647 36.9016 12.2287 37.0069 12.2724C37.1123 12.3161 37.2257 12.3386 37.3402 12.3386C37.4548 12.3386 37.5682 12.3161 37.6735 12.2724C37.7789 12.2287 37.874 12.1647 37.9531 12.0843C38.0322 12.0039 38.0937 11.9088 38.1338 11.8047C38.1739 11.7007 38.1918 11.5898 38.1864 11.4788V6.96712C38.1776 6.7041 38.2315 6.44265 38.344 6.20319C38.4566 5.96373 38.6247 5.75272 38.8352 5.58666C39.2782 5.22716 39.8649 5.04023 40.5776 5.04023C40.6943 5.03888 40.8109 5.04368 40.927 5.05461C41.1597 5.07528 41.3293 5.08606 41.4331 5.08606C41.6052 5.0935 41.7763 5.05561 41.928 4.97642C42.0836 4.8796 42.194 4.72771 42.2357 4.55311C42.2569 4.48436 42.2666 4.41274 42.2645 4.34101C42.2645 4.1316 42.1718 3.84041 41.7325 3.65078Z" fill="#191C1F"/>
</g>
<defs>
<clipPath id="clip0_4667_196769">
<rect width="69" height="16" fill="white"/>
</clipPath>
</defs>
</svg>
